<?xml version="1.0" standalone="no"?><!DOCTYPE svg PUBLIC "-//W3C//DTD SVG 1.1//EN" "http://www.w3.org/Graphics/SVG/1.1/DTD/svg11.dtd"><svg xmlns="http://www.w3.org/2000/svg" version="1.1" width="1116.167" height="705.333" xmlns:xlink="http://www.w3.org/1999/xlink" xlink="http://www.w3.org/1999/xlink" style="position:relative;overflow:hidden;" viewBox="54.167 30.667 1116.167 705.333"><defs/><g><g width="108.333" height="60.833" transform="scale(1,1) translate(553.167,396)"><g stroke="#000000" stroke-opacity="1" stroke-width="1" stroke-dasharray="none" width="108.333" height="60.833" transform="scale(1,1) translate(0,0)" fill="#FFFFFF" fill-opacity="1"><rect width="108.333" height="60.833"/></g><g width="103.33333333333333" height="55.83333333333333" transform="scale(1,1) translate(2.5,2.5)"><text width="103.33333333333333" height="16.66666603088379" transform="scale(1,1) translate(0,19.58333365122477)" xml:space="preserve"><tspan xml:space="preserve" text-rendering="optimizeSpeed" font-size="13.88888888888889" font-weight="normal" font-style="normal" fill="#000000" opacity="1" x="24.063" text-anchor="start" y="13.542" textLength="55.20832824707031" style="font-family: Verdana, Geneva, sans-serif;">Student</tspan></text></g></g><g width="70.833" height="41.667" transform="scale(1,1) translate(744.833,405.667)"><g transform="scale(1,1) translate(0,0)" stroke="#000000" fill="#FFFFFF" fill-opacity="1" stroke-opacity="1"><path d="M35.417,0 L70.833,20.833 L35.417,41.667 L0,20.833 L35.417,0 z" stroke-width="1" stroke-dasharray="none"/></g><g width="34.83333333333333" height="20.333333333333332" transform="scale(1,1) translate(18,10.667)"><text width="34.83333333333333" height="16.66666603088379" transform="scale(1,1) translate(0,1.8333336512247715)" xml:space="preserve"><tspan xml:space="preserve" text-rendering="optimizeSpeed" font-size="13.88888888888889" font-weight="normal" font-style="normal" fill="#000000" opacity="1" x="4.917" text-anchor="start" y="13.542" textLength="24.999998092651367" style="font-family: Verdana, Geneva, sans-serif;">Has</tspan></text></g></g><g width="74.5" height="41.667" transform="scale(1,1) translate(903.333,405.667)"><g stroke="#000000" stroke-opacity="1" stroke-width="1" stroke-dasharray="none" width="74.5" height="41.667" transform="scale(1,1) translate(0,0)" fill="#FFFFFF" fill-opacity="1"><rect width="74.5" height="41.667"/></g><g width="69.5" height="36.666666666666664" transform="scale(1,1) translate(2.5,2.5)"><text width="69.5" height="16.66666603088379" transform="scale(1,1) translate(0,10.000000317891438)" xml:space="preserve"><tspan xml:space="preserve" text-rendering="optimizeSpeed" font-size="13.88888888888889" font-weight="normal" font-style="normal" fill="#000000" opacity="1" x="16.521" text-anchor="start" y="13.542" textLength="36.45833206176758" style="font-family: Verdana, Geneva, sans-serif;">Room</tspan></text></g></g><g width="75" height="33.333" transform="scale(1,1) translate(537.5,308.333)"><g width="75" height="33.333" transform="scale(1,1) translate(0,0)" stroke="#000000" stroke-width="1" stroke-dasharray="none" fill="#FFFFFF" fill-opacity="1" stroke-opacity="1"><ellipse rx="37.5" ry="16.6665" cx="37.5" cy="16.6665"/></g><g width="48.33333333333333" height="19" transform="scale(1,1) translate(13.333,7.167)"><text width="48.33333333333333" height="16.66666603088379" transform="scale(1,1) translate(0,1.1666669845581055)" xml:space="preserve"><tspan xml:space="preserve" text-rendering="optimizeSpeed" font-size="13.88888888888889" font-weight="normal" font-style="normal" fill="#000000" opacity="1" x="1.771" text-anchor="start" y="13.542" textLength="44.791664123535156" style="font-family: Verdana, Geneva, sans-serif;">gender</tspan></text></g></g><g width="62.5" height="33.333" transform="scale(1,1) translate(501,343.167)"><g width="62.5" height="33.333" transform="scale(1,1) translate(0,0)" stroke="#000000" stroke-width="1" stroke-dasharray="none" fill="#FFFFFF" fill-opacity="1" stroke-opacity="1"><ellipse rx="31.25" ry="16.6665" cx="31.25" cy="16.6665"/></g><g width="39.5" height="18.833333333333332" transform="scale(1,1) translate(11.5,7.167)"><text width="39.5" height="16.66666603088379" transform="scale(1,1) translate(0,1.0833336512247715)" xml:space="preserve"><tspan xml:space="preserve" text-rendering="optimizeSpeed" font-size="13.88888888888889" font-weight="normal" font-style="normal" fill="#000000" opacity="1" x="5.688" text-anchor="start" y="13.542" textLength="28.125" style="font-family: Verdana, Geneva, sans-serif;">DOB</tspan></text></g></g><g width="85.667" height="53.667" transform="scale(1,1) translate(657.167,331.5)"><g width="85.667" height="53.667" transform="scale(1,1) translate(0,0)" stroke="#000000" stroke-width="1" stroke-dasharray="none" fill="#FFFFFF" fill-opacity="1" stroke-opacity="1"><ellipse rx="42.8335" ry="26.8335" cx="42.8335" cy="26.8335"/></g><g width="55.666666666666664" height="33.33333333333333" transform="scale(1,1) translate(15,10.167)"><text width="55.666666666666664" height="33.33333206176758" transform="scale(1,1) translate(0,6.357828752356909e-7)" xml:space="preserve"><tspan xml:space="preserve" text-rendering="optimizeSpeed" font-size="13.88888888888889" font-weight="normal" font-style="normal" fill="#000000" opacity="1" x="1.792" text-anchor="start" y="13.542" textLength="52.08333206176758" style="font-family: Verdana, Geneva, sans-serif;">father's</tspan><tspan xml:space="preserve" text-rendering="optimizeSpeed" font-size="13.88888888888889" font-weight="normal" font-style="normal" fill="#000000" opacity="1" x="5.437" text-anchor="start" y="30.208" textLength="44.79167556762695" style="font-family: Verdana, Geneva, sans-serif;">_name</tspan></text></g></g><g width="82.167" height="36.5" transform="scale(1,1) translate(432.833,449.833)"><g width="82.167" height="36.5" transform="scale(1,1) translate(0,0)" stroke="#000000" stroke-width="1" stroke-dasharray="none" fill="#FFFFFF" fill-opacity="1" stroke-opacity="1"><ellipse rx="41.0835" ry="18.25" cx="41.0835" cy="18.25"/></g><g width="53.39350047233333" height="21.102290761" transform="scale(1,1) translate(14.387,7.699)"><text width="53.39350047233333" height="16.66666603088379" transform="scale(1,1) translate(0,2.217812365058105)" xml:space="preserve"><tspan xml:space="preserve" text-rendering="optimizeSpeed" font-size="13.88888888888889" font-weight="normal" font-style="normal" fill="#000000" opacity="1" x="0.134" text-anchor="start" y="13.542" textLength="53.125" style="font-family: Verdana, Geneva, sans-serif;">address</tspan></text></g></g><g width="117.333" height="34.5" transform="scale(1,1) translate(407,409.167)"><g width="117.333" height="34.5" transform="scale(1,1) translate(0,0)" stroke="#000000" stroke-width="1" stroke-dasharray="none" fill="#FFFFFF" fill-opacity="1" stroke-opacity="1"><ellipse rx="58.6665" ry="17.25" cx="58.6665" cy="17.25"/></g><g width="78.33333333333333" height="19.833333333333332" transform="scale(1,1) translate(19.5,7.333)"><text width="78.33333333333333" height="16.66666603088379" transform="scale(1,1) translate(0,1.5833336512247715)" xml:space="preserve"><tspan xml:space="preserve" text-rendering="optimizeSpeed" font-size="13.88888888888889" font-weight="normal" font-style="normal" fill="#000000" opacity="1" x="0.104" text-anchor="start" y="13.542" textLength="78.12499237060547" style="font-family: Verdana, Geneva, sans-serif;">fee_receipt</tspan></text></g></g><g width="94" height="43.5" transform="scale(1,1) translate(568.667,488)"><g width="94" height="43.5" transform="scale(1,1) translate(0,0)" stroke="#000000" stroke-width="1" stroke-dasharray="none" fill="#FFFFFF" fill-opacity="1" stroke-opacity="1"><ellipse rx="47" ry="21.75" cx="47" cy="21.75"/></g><g width="61.760930726" height="26.052038234999998" transform="scale(1,1) translate(16.12,8.724)"><text width="61.760930726" height="16.66666603088379" transform="scale(1,1) translate(0,4.692686102058104)" xml:space="preserve"><tspan xml:space="preserve" text-rendering="optimizeSpeed" font-size="13.88888888888889" font-weight="normal" font-style="normal" fill="#000000" opacity="1" x="0.151" text-anchor="start" y="13.542" textLength="61.45832824707031" style="font-family: Verdana, Geneva, sans-serif;">pin_code</tspan></text></g></g><g width="75" height="33.333" transform="scale(1,1) translate(661.5,476.5)"><g width="75" height="33.333" transform="scale(1,1) translate(0,0)" stroke="#000000" stroke-width="1" stroke-dasharray="none" fill="#FFFFFF" fill-opacity="1" stroke-opacity="1"><ellipse rx="37.5" ry="16.6665" cx="37.5" cy="16.6665"/></g><g width="48.33333333333333" height="18.833333333333332" transform="scale(1,1) translate(13.333,7.167)"><text width="48.33333333333333" height="16.66666603088379" transform="scale(1,1) translate(0,1.0833336512247715)" xml:space="preserve"><tspan xml:space="preserve" text-rendering="optimizeSpeed" font-size="13.88888888888889" font-weight="normal" font-style="normal" fill="#000000" opacity="1" x="1.771" text-anchor="start" y="13.542" textLength="44.791664123535156" style="font-family: Verdana, Geneva, sans-serif;">roll_no</tspan></text></g></g><g width="28.833" height="1" transform="scale(1,1) translate(524.333,426.5)"><g transform="scale(1,1) translate(0,0)" fill="#717171" stroke="#717171" stroke-opacity="1"><path d="M0,0 L28.833,0" fill="none" stroke-width="1" stroke-dasharray="none"/><g><g stroke-dasharray="none"><path d="M-1,-1L1,-1L1,1L-1,1z" stroke-width="0" fill="none"/></g></g></g></g><g width="83.333" height="1" transform="scale(1,1) translate(661.5,426.5)"><g transform="scale(1,1) translate(0,0)" fill="#717171" stroke="#717171" stroke-opacity="1"><path d="M0,0 L83.333,0" fill="none" stroke-width="1" stroke-dasharray="none"/><g><g stroke-dasharray="none"><path d="M-1,-1L1,-1L1,1L-1,1z" stroke-width="0" fill="none"/></g></g></g></g><g width="87.667" height="1" transform="scale(1,1) translate(815.667,426.5)"><g transform="scale(1,1) translate(0,0)" fill="#717171" stroke="#717171" stroke-opacity="1"><path d="M0,0 L87.667,0" fill="none" stroke-width="1" stroke-dasharray="none"/><g><g stroke-dasharray="none"><path d="M-1,-1L1,-1L1,1L-1,1z" stroke-width="0" fill="none"/></g></g></g></g><g width="35.296" height="18.693" transform="scale(1,1) translate(634.417,377.307)"><g transform="scale(1,1) translate(0,0)" fill="#717171" stroke="#717171" stroke-opacity="1"><path d="M0,18.693 L35.296,0" fill="none" stroke-width="1" stroke-dasharray="none"/><g><g stroke-dasharray="none"><path d="M-1,17.693L1,17.693L1,19.693L-1,19.693z" stroke-width="0" fill="none"/></g></g></g></g><g width="5.25" height="54.333" transform="scale(1,1) translate(575,341.667)"><g transform="scale(1,1) translate(0,0)" fill="#717171" stroke="#717171" stroke-opacity="1"><path d="M0,0 L5.25,54.333" fill="none" stroke-width="1" stroke-dasharray="none"/><g><g stroke-dasharray="none"><path d="M-1,-1L1,-1L1,1L-1,1z" stroke-width="0" fill="none"/></g></g></g></g><g width="42.504" height="18.297" transform="scale(1,1) translate(510.663,441.625)"><g transform="scale(1,1) translate(0,0)" fill="#717171" stroke="#717171" stroke-opacity="1"><path d="M0,18.297 L42.504,0" fill="none" stroke-width="1" stroke-dasharray="none"/><g><g stroke-dasharray="none"><path d="M-1,17.297L1,17.297L1,19.297L-1,19.297z" stroke-width="0" fill="none"/></g></g></g></g><g width="31.042" height="28.88" transform="scale(1,1) translate(634.417,456.833)"><g transform="scale(1,1) translate(0,0)" fill="#717171" stroke="#717171" stroke-opacity="1"><path d="M0,0 L31.042,28.88" fill="none" stroke-width="1" stroke-dasharray="none"/><g><g stroke-dasharray="none"><path d="M-1,-1L1,-1L1,1L-1,1z" stroke-width="0" fill="none"/></g></g></g></g><g width="8.333" height="31.167" transform="scale(1,1) translate(607.333,456.833)"><g transform="scale(1,1) translate(0,0)" fill="#717171" stroke="#717171" stroke-opacity="1"><path d="M0,0 L8.333,31.167" fill="none" stroke-width="1" stroke-dasharray="none"/><g><g stroke-dasharray="none"><path d="M-1,-1L1,-1L1,1L-1,1z" stroke-width="0" fill="none"/></g></g></g></g><g width="6.941" height="21.26" transform="scale(1,1) translate(546.225,374.74)"><g transform="scale(1,1) translate(0,0)" fill="#717171" stroke="#717171" stroke-opacity="1"><path d="M0,0 L6.941,21.26" fill="none" stroke-width="1" stroke-dasharray="none"/><g><g stroke-dasharray="none"><path d="M-1,-1L1,-1L1,1L-1,1z" stroke-width="0" fill="none"/></g></g></g></g><g width="97.167" height="33.333" transform="scale(1,1) translate(917,351.5)"><g width="97.167" height="33.333" transform="scale(1,1) translate(0,0)" stroke="#000000" stroke-width="1" stroke-dasharray="none" fill="#FFFFFF" fill-opacity="1" stroke-opacity="1"><ellipse rx="48.5835" ry="16.6665" cx="48.5835" cy="16.6665"/></g><g width="64" height="18.833333333333332" transform="scale(1,1) translate(16.667,7.167)"><text width="64" height="16.66666603088379" transform="scale(1,1) translate(0,1.0833336512247715)" xml:space="preserve"><tspan xml:space="preserve" text-rendering="optimizeSpeed" font-size="13.88888888888889" font-weight="normal" font-style="normal" fill="#000000" opacity="1" x="2.833" text-anchor="start" y="13.542" textLength="58.33332824707031" style="font-family: Verdana, Geneva, sans-serif;">room_no</tspan></text></g></g><g width="100" height="33.333" transform="scale(1,1) translate(999,393.167)"><g width="100" height="33.333" transform="scale(1,1) translate(0,0)" stroke="#000000" stroke-width="1" stroke-dasharray="none" fill="#FFFFFF" fill-opacity="1" stroke-opacity="1"><ellipse rx="50" ry="16.6665" cx="50" cy="16.6665"/></g><g width="66" height="18.833333333333332" transform="scale(1,1) translate(17,7.167)"><text width="66" height="16.66666603088379" transform="scale(1,1) translate(0,1.0833336512247715)" xml:space="preserve"><tspan xml:space="preserve" text-rendering="optimizeSpeed" font-size="13.88888888888889" font-weight="normal" font-style="normal" fill="#000000" opacity="1" x="2.792" text-anchor="start" y="13.542" textLength="60.416664123535156" style="font-family: Verdana, Geneva, sans-serif;">block_no</tspan></text></g></g><g width="91.667" height="30.5" transform="scale(1,1) translate(911.5,477.833)"><g width="91.667" height="30.5" transform="scale(1,1) translate(0,0)" stroke="#000000" stroke-width="1" stroke-dasharray="none" fill="#FFFFFF" fill-opacity="1" stroke-opacity="1"><ellipse rx="45.8335" ry="15.25" cx="45.8335" cy="15.25"/></g><g width="60.166666666666664" height="16.833333333333332" transform="scale(1,1) translate(15.667,6.833)"><text width="60.166666666666664" height="16.66666603088379" transform="scale(1,1) translate(0,0.08333365122477154)" xml:space="preserve"><tspan xml:space="preserve" text-rendering="optimizeSpeed" font-size="13.88888888888889" font-weight="normal" font-style="normal" fill="#000000" opacity="1" x="1.438" text-anchor="start" y="13.542" textLength="57.291664123535156" style="font-family: Verdana, Geneva, sans-serif;">vacancy</tspan></text></g></g><g width="91" height="31.167" transform="scale(1,1) translate(995.167,444.167)"><g width="91" height="31.167" transform="scale(1,1) translate(0,0)" stroke="#000000" stroke-width="1" stroke-dasharray="none" fill="#FFFFFF" fill-opacity="1" stroke-opacity="1"><ellipse rx="45.5" ry="15.5835" cx="45.5" cy="15.5835"/></g><g width="59.63961038" height="17.33105459033333" transform="scale(1,1) translate(15.68,6.918)"><text width="59.63961038" height="16.66666603088379" transform="scale(1,1) translate(0,0.3321942797247708)" xml:space="preserve"><tspan xml:space="preserve" text-rendering="optimizeSpeed" font-size="13.88888888888889" font-weight="normal" font-style="normal" fill="#000000" opacity="1" x="0.653" text-anchor="start" y="13.542" textLength="58.33333206176758" style="font-family: Verdana, Geneva, sans-serif;">capacity</tspan></text></g></g><g width="25" height="20.833" transform="scale(1,1) translate(940.583,384.833)"><g transform="scale(1,1) translate(0,0)" fill="#717171" stroke="#717171" stroke-opacity="1"><path d="M0,20.833 L25,0" fill="none" stroke-width="1" stroke-dasharray="none"/><g><g stroke-dasharray="none"><path d="M-1,19.833L1,19.833L1,21.833L-1,21.833z" stroke-width="0" fill="none"/></g></g></g></g><g width="21.167" height="6.25" transform="scale(1,1) translate(977.833,409.833)"><g transform="scale(1,1) translate(0,0)" fill="#717171" stroke="#717171" stroke-opacity="1"><path d="M0,6.25 L21.167,0" fill="none" stroke-width="1" stroke-dasharray="none"/><g><g stroke-dasharray="none"><path d="M-1,5.25L1,5.25L1,7.25L-1,7.25z" stroke-width="0" fill="none"/></g></g></g></g><g width="22.137" height="15.864" transform="scale(1,1) translate(977.833,436.917)"><g transform="scale(1,1) translate(0,0)" fill="#717171" stroke="#717171" stroke-opacity="1"><path d="M0,0 L22.137,15.864" fill="none" stroke-width="1" stroke-dasharray="none"/><g><g stroke-dasharray="none"><path d="M-1,-1L1,-1L1,1L-1,1z" stroke-width="0" fill="none"/></g></g></g></g><g width="16.75" height="30.5" transform="scale(1,1) translate(940.583,447.333)"><g transform="scale(1,1) translate(0,0)" fill="#717171" stroke="#717171" stroke-opacity="1"><path d="M0,0 L16.75,30.5" fill="none" stroke-width="1" stroke-dasharray="none"/><g><g stroke-dasharray="none"><path d="M-1,-1L1,-1L1,1L-1,1z" stroke-width="0" fill="none"/></g></g></g></g><g width="91.167" height="38.5" transform="scale(1,1) translate(636.667,140.5)"><g stroke="#000000" stroke-opacity="1" stroke-width="1" stroke-dasharray="none" width="91.167" height="38.5" transform="scale(1,1) translate(0,0)" fill="#FFFFFF" fill-opacity="1"><rect width="91.167" height="38.5"/></g><g width="86.16666666666666" height="33.5" transform="scale(1,1) translate(2.5,2.5)"><text width="86.16666666666666" height="18.75" transform="scale(1,1) translate(0,7.375)" xml:space="preserve"><tspan xml:space="preserve" text-rendering="optimizeSpeed" font-size="16.666666666666668" font-weight="normal" font-style="normal" fill="#000000" opacity="1" x="24.854" text-anchor="start" y="15.625" textLength="36.45833206176758" style="font-family: Verdana, Geneva, sans-serif;">User</tspan></text></g></g><g width="74.167" height="58.333" transform="rotate(15,657.25,268.167) scale(1,1) translate(620.167,239)"><g transform="scale(1,1) translate(0,0)" stroke="#000000" fill="#FFFFFF" fill-opacity="1" stroke-opacity="1"><path d="M37.083,0 L74.167,29.167 L37.083,58.333 L0,29.167 L37.083,0 z" stroke-width="1" stroke-dasharray="none"/></g><g width="36.666666666666664" height="28.666666666666664" transform="scale(1,1) translate(18.833,14.833)"><text width="36.666666666666664" height="16.66666603088379" transform="scale(1,1) translate(0,6.000000317891438)" xml:space="preserve"><tspan xml:space="preserve" text-rendering="optimizeSpeed" font-size="13.88888888888889" font-weight="normal" font-style="normal" fill="#000000" opacity="1" x="5.833" text-anchor="start" y="13.542" textLength="24.999998092651367" style="font-family: Verdana, Geneva, sans-serif;">Has</tspan></text></g></g><g width="42.368" height="99.66" transform="scale(1,1) translate(607.333,296.34)"><g transform="scale(1,1) translate(0,0)" fill="#717171" stroke="#717171" stroke-opacity="1"><path d="M0,99.66 L42.368,0" fill="none" stroke-width="1" stroke-dasharray="none"/><g><g stroke-dasharray="none"><path d="M-1,98.66L1,98.66L1,100.66L-1,100.66z" stroke-width="0" fill="none"/></g></g></g></g><g width="17.451" height="60.994" transform="scale(1,1) translate(664.799,179)"><g transform="scale(1,1) translate(0,0)" fill="#717171" stroke="#717171" stroke-opacity="1"><path d="M0,60.994 L17.451,0" fill="none" stroke-width="1" stroke-dasharray="none"/><g><g stroke-dasharray="none"><path d="M-1,59.994L1,59.994L1,61.994L-1,61.994z" stroke-width="0" fill="none"/></g></g></g></g><g width="106.333" height="36.5" transform="scale(1,1) translate(720.833,199.833)"><g width="106.333" height="36.5" transform="scale(1,1) translate(0,0)" stroke="#000000" stroke-width="1" stroke-dasharray="none" fill="#FFFFFF" fill-opacity="1" stroke-opacity="1"><ellipse rx="53.1665" ry="18.25" cx="53.1665" cy="18.25"/></g><g width="70.48191437066666" height="21.102290761" transform="scale(1,1) translate(17.926,7.699)"><text width="70.48191437066666" height="16.66666603088379" transform="scale(1,1) translate(0,2.217812365058105)" xml:space="preserve"><tspan xml:space="preserve" text-rendering="optimizeSpeed" font-size="13.88888888888889" font-weight="normal" font-style="normal" fill="#000000" opacity="1" x="0.345" text-anchor="start" y="13.542" textLength="69.79166412353516" style="font-family: Verdana, Geneva, sans-serif;">last_name</tspan></text></g></g><g width="98.833" height="34" transform="scale(1,1) translate(466.167,126.167)"><g width="98.833" height="34" transform="scale(1,1) translate(0,0)" stroke="#000000" stroke-width="1" stroke-dasharray="none" fill="#FFFFFF" fill-opacity="1" stroke-opacity="1"><ellipse rx="49.4165" ry="17" cx="49.4165" cy="17"/></g><g width="65.17861350566666" height="19.334523806" transform="scale(1,1) translate(16.827,7.333)"><text width="65.17861350566666" height="16.66666603088379" transform="scale(1,1) translate(0,1.3339288875581055)" xml:space="preserve"><tspan xml:space="preserve" text-rendering="optimizeSpeed" font-size="13.88888888888889" font-weight="normal" font-style="normal" fill="#000000" opacity="1" x="0.298" text-anchor="start" y="13.542" textLength="64.58332824707031" style="font-family: Verdana, Geneva, sans-serif;">password</tspan></text></g></g><g width="100.997" height="34.708" transform="scale(1,1) translate(548.502,59.062)"><g width="100.997" height="34.708" transform="scale(1,1) translate(0,0)" stroke="#000000" stroke-width="1" stroke-dasharray="none" fill="#FFFFFF" fill-opacity="1" stroke-opacity="1"><ellipse rx="50.4985" ry="17.354" cx="50.4985" cy="17.354"/></g><g width="66.70840210520815" height="19.835391109916664" transform="scale(1,1) translate(17.144,7.436)"><text width="66.70840210520815" height="16.66666603088379" transform="scale(1,1) translate(0,1.5843625395164374)" xml:space="preserve"><tspan xml:space="preserve" text-rendering="optimizeSpeed" font-size="13.88888888888889" font-weight="normal" font-style="normal" fill="#000000" opacity="1" x="0.542" text-anchor="start" y="13.542" textLength="65.62499237060547" style="font-family: Verdana, Geneva, sans-serif;">username</tspan></text></g></g><g width="109.452" height="37.612" transform="scale(1,1) translate(685.941,66.027)"><g width="109.452" height="37.612" transform="scale(1,1) translate(0,0)" stroke="#000000" stroke-width="1" stroke-dasharray="none" fill="#FFFFFF" fill-opacity="1" stroke-opacity="1"><ellipse rx="54.726" ry="18.806" cx="54.726" cy="18.806"/></g><g width="72.68680270208239" height="21.88873840153346" transform="scale(1,1) translate(18.382,7.862)"><text width="72.68680270208239" height="16.66666603088379" transform="scale(1,1) translate(0,2.611036185324835)" xml:space="preserve"><tspan xml:space="preserve" text-rendering="optimizeSpeed" font-size="13.88888888888889" font-weight="normal" font-style="normal" fill="#000000" opacity="1" x="0.406" text-anchor="start" y="13.542" textLength="71.87499237060547" style="font-family: Verdana, Geneva, sans-serif;">first_name</tspan></text></g></g><g width="97" height="33.333" transform="scale(1,1) translate(475.5,184.833)"><g width="97" height="33.333" transform="scale(1,1) translate(0,0)" stroke="#000000" stroke-width="1" stroke-dasharray="none" fill="#FFFFFF" fill-opacity="1" stroke-opacity="1"><ellipse rx="48.5" ry="16.6665" cx="48.5" cy="16.6665"/></g><g width="63.83333333333333" height="18.833333333333332" transform="scale(1,1) translate(16.5,7.167)"><text width="63.83333333333333" height="16.66666603088379" transform="scale(1,1) translate(0,1.0833336512247715)" xml:space="preserve"><tspan xml:space="preserve" text-rendering="optimizeSpeed" font-size="13.88888888888889" font-weight="normal" font-style="normal" fill="#000000" opacity="1" x="14.729" text-anchor="start" y="13.542" textLength="34.375" style="font-family: Verdana, Geneva, sans-serif;">Email</tspan></text></g></g><g width="71.667" height="16.583" transform="scale(1,1) translate(565,143.167)"><g transform="scale(1,1) translate(0,0)" fill="#717171" stroke="#717171" stroke-opacity="1"><path d="M0,0 L71.667,16.583" fill="none" stroke-width="1" stroke-dasharray="none"/><g><g stroke-dasharray="none"><path d="M-1,-1L1,-1L1,1L-1,1z" stroke-width="0" fill="none"/></g></g></g></g><g width="78.372" height="20.34" transform="scale(1,1) translate(558.295,169.375)"><g transform="scale(1,1) translate(0,0)" fill="#717171" stroke="#717171" stroke-opacity="1"><path d="M0,20.34 L78.372,0" fill="none" stroke-width="1" stroke-dasharray="none"/><g><g stroke-dasharray="none"><path d="M-1,19.34L1,19.34L1,21.34L-1,21.34z" stroke-width="0" fill="none"/></g></g></g></g><g width="60.458" height="46.729" transform="scale(1,1) translate(599,93.771)"><g transform="scale(1,1) translate(0,0)" fill="#717171" stroke="#717171" stroke-opacity="1"><path d="M0,0 L60.458,46.729" fill="none" stroke-width="1" stroke-dasharray="none"/><g><g stroke-dasharray="none"><path d="M-1,-1L1,-1L1,1L-1,1z" stroke-width="0" fill="none"/></g></g></g></g><g width="11.151" height="38.846" transform="scale(1,1) translate(705.042,101.654)"><g transform="scale(1,1) translate(0,0)" fill="#717171" stroke="#717171" stroke-opacity="1"><path d="M0,38.846 L11.151,0" fill="none" stroke-width="1" stroke-dasharray="none"/><g><g stroke-dasharray="none"><path d="M-1,37.846L1,37.846L1,39.846L-1,39.846z" stroke-width="0" fill="none"/></g></g></g></g><g width="45.181" height="22.76" transform="scale(1,1) translate(705.042,179)"><g transform="scale(1,1) translate(0,0)" fill="#717171" stroke="#717171" stroke-opacity="1"><path d="M0,0 L45.181,22.76" fill="none" stroke-width="1" stroke-dasharray="none"/><g><g stroke-dasharray="none"><path d="M-1,-1L1,-1L1,1L-1,1z" stroke-width="0" fill="none"/></g></g></g></g><g width="74.333" height="58.333" transform="scale(1,1) translate(853.5,130.667)"><g transform="scale(1,1) translate(0,0)" stroke="#000000" fill="#FFFFFF" fill-opacity="1" stroke-opacity="1"><path d="M37.167,0 L74.333,29.167 L37.167,58.333 L0,29.167 L37.167,0 z" stroke-width="1" stroke-dasharray="none"/></g><g width="36.666666666666664" height="28.666666666666664" transform="scale(1,1) translate(18.833,14.833)"><text width="36.666666666666664" height="16.66666603088379" transform="scale(1,1) translate(0,6.000000317891438)" xml:space="preserve"><tspan xml:space="preserve" text-rendering="optimizeSpeed" font-size="13.88888888888889" font-weight="normal" font-style="normal" fill="#000000" opacity="1" x="5.833" text-anchor="start" y="13.542" textLength="24.999998092651367" style="font-family: Verdana, Geneva, sans-serif;">Has</tspan></text></g></g><g width="99.5" height="55.167" transform="scale(1,1) translate(1032.5,132.167)"><g stroke="#000000" stroke-opacity="1" stroke-width="1" stroke-dasharray="none" width="99.5" height="55.167" transform="scale(1,1) translate(0,0)" fill="#FFFFFF" fill-opacity="1"><rect width="99.5" height="55.167"/></g><g width="94.5" height="50.166666666666664" transform="scale(1,1) translate(2.5,2.5)"><text width="94.5" height="18.75" transform="scale(1,1) translate(0,15.708333333333332)" xml:space="preserve"><tspan xml:space="preserve" text-rendering="optimizeSpeed" font-size="16.666666666666668" font-weight="normal" font-style="normal" fill="#000000" opacity="1" x="32.667" text-anchor="start" y="15.625" textLength="29.166664123535156" style="font-family: Verdana, Geneva, sans-serif;">Diff</tspan></text></g></g><g width="125.667" height="0.083" transform="scale(1,1) translate(727.833,159.75)"><g transform="scale(1,1) translate(0,0)" fill="#717171" stroke="#717171" stroke-opacity="1"><path d="M0,0 L125.667,0.083" fill="none" stroke-width="1" stroke-dasharray="none"/><g><g stroke-dasharray="none"><path d="M-1,-1L1,-1L1,1L-1,1z" stroke-width="0" fill="none"/></g></g></g></g><g width="104.667" height="0.083" transform="scale(1,1) translate(927.833,159.75)"><g transform="scale(1,1) translate(0,0)" fill="#717171" stroke="#717171" stroke-opacity="1"><path d="M0,0.083 L104.667,0" fill="none" stroke-width="1" stroke-dasharray="none"/><g><g stroke-dasharray="none"><path d="M-1,-0.917L1,-0.917L1,1.083L-1,1.083z" stroke-width="0" fill="none"/></g></g></g></g><g width="115.167" height="33.333" transform="scale(1,1) translate(1049.667,43.167)"><g width="115.167" height="33.333" transform="scale(1,1) translate(0,0)" stroke="#000000" stroke-width="1" stroke-dasharray="none" fill="#FFFFFF" fill-opacity="1" stroke-opacity="1"><ellipse rx="57.5835" ry="16.6665" cx="57.5835" cy="16.6665"/></g><g width="76.66666666666666" height="18.833333333333332" transform="scale(1,1) translate(19.333,7.167)"><text width="76.66666666666666" height="16.66666603088379" transform="scale(1,1) translate(0,1.0833336512247715)" xml:space="preserve"><tspan xml:space="preserve" text-rendering="optimizeSpeed" font-size="13.88888888888889" font-weight="normal" font-style="normal" fill="#000000" opacity="1" x="2.396" text-anchor="start" y="13.542" textLength="71.87499237060547" style="font-family: Verdana, Geneva, sans-serif;">is_student</tspan></text></g></g><g width="25" height="55.667" transform="scale(1,1) translate(1082.25,76.5)"><g transform="scale(1,1) translate(0,0)" fill="#717171" stroke="#717171" stroke-opacity="1"><path d="M0,55.667 L25,0" fill="none" stroke-width="1" stroke-dasharray="none"/><g><g stroke-dasharray="none"><path d="M-1,54.667L1,54.667L1,56.667L-1,56.667z" stroke-width="0" fill="none"/></g></g></g></g><g width="77.167" height="54.167" transform="rotate(15,473.917,568.083) scale(1,1) translate(435.333,541)"><g transform="scale(1,1) translate(0,0)" stroke="#000000" fill="#FFFFFF" fill-opacity="1" stroke-opacity="1"><path d="M38.583,0 L77.167,27.083 L38.583,54.167 L0,27.083 L38.583,0 z" stroke-width="1" stroke-dasharray="none"/></g><g width="38" height="26.5" transform="scale(1,1) translate(19.667,13.833)"><text width="38" height="16.66666603088379" transform="scale(1,1) translate(0,4.9166669845581055)" xml:space="preserve"><tspan xml:space="preserve" text-rendering="optimizeSpeed" font-size="13.88888888888889" font-weight="normal" font-style="normal" fill="#000000" opacity="1" x="6.5" text-anchor="start" y="13.542" textLength="24.999998092651367" style="font-family: Verdana, Geneva, sans-serif;">Has</tspan></text></g></g><g width="99.324" height="85.09" transform="scale(1,1) translate(480.926,456.833)"><g transform="scale(1,1) translate(0,0)" fill="#717171" stroke="#717171" stroke-opacity="1"><path d="M0,85.09 L99.324,0" fill="none" stroke-width="1" stroke-dasharray="none"/><g><g stroke-dasharray="none"><path d="M-1,84.09L1,84.09L1,86.09L-1,86.09z" stroke-width="0" fill="none"/></g></g></g></g><g width="99.5" height="46.833" transform="scale(1,1) translate(357.5,661.333)"><g stroke="#000000" stroke-opacity="1" stroke-width="1" stroke-dasharray="none" width="99.5" height="46.833" transform="scale(1,1) translate(0,0)" fill="#FFFFFF" fill-opacity="1"><rect width="99.5" height="46.833"/></g><g width="94.5" height="41.83333333333333" transform="scale(1,1) translate(2.5,2.5)"><text width="94.5" height="16.66666603088379" transform="scale(1,1) translate(0,12.58333365122477)" xml:space="preserve"><tspan xml:space="preserve" text-rendering="optimizeSpeed" font-size="13.88888888888889" font-weight="normal" font-style="normal" fill="#000000" opacity="1" x="21.729" text-anchor="start" y="13.542" textLength="51.04166030883789" style="font-family: Verdana, Geneva, sans-serif;">Change</tspan></text></g></g><g width="59.657" height="67.09" transform="scale(1,1) translate(407.25,594.244)"><g transform="scale(1,1) translate(0,0)" fill="#717171" stroke="#717171" stroke-opacity="1"><path d="M0,67.09 L59.657,0" fill="none" stroke-width="1" stroke-dasharray="none"/><g><g stroke-dasharray="none"><path d="M-1,66.09L1,66.09L1,68.09L-1,68.09z" stroke-width="0" fill="none"/></g></g></g></g><g width="89" height="41.333" transform="scale(1,1) translate(237.833,689.167)"><g width="89" height="41.333" transform="scale(1,1) translate(0,0)" stroke="#000000" stroke-width="1" stroke-dasharray="none" fill="#FFFFFF" fill-opacity="1" stroke-opacity="1"><ellipse rx="44.5" ry="20.6665" cx="44.5" cy="20.6665"/></g><g width="58.166666666666664" height="24.5" transform="scale(1,1) translate(15.333,8.333)"><text width="58.166666666666664" height="16.66666603088379" transform="scale(1,1) translate(0,3.9166669845581055)" xml:space="preserve"><tspan xml:space="preserve" text-rendering="optimizeSpeed" font-size="13.88888888888889" font-weight="normal" font-style="normal" fill="#000000" opacity="1" x="4.604" text-anchor="start" y="13.542" textLength="48.95833206176758" style="font-family: Verdana, Geneva, sans-serif;">Reason</tspan></text></g></g><g width="30.667" height="13.375" transform="scale(1,1) translate(326.833,696.458)"><g transform="scale(1,1) translate(0,0)" fill="#717171" stroke="#717171" stroke-opacity="1"><path d="M0,13.375 L30.667,0" fill="none" stroke-width="1" stroke-dasharray="none"/><g><g stroke-dasharray="none"><path d="M-1,12.375L1,12.375L1,14.375L-1,14.375z" stroke-width="0" fill="none"/></g></g></g></g><g width="77" height="54.333" transform="rotate(15,390.667,351.5) scale(1,1) translate(352.167,324.333)"><g transform="scale(1,1) translate(0,0)" stroke="#000000" fill="#FFFFFF" fill-opacity="1" stroke-opacity="1"><path d="M38.5,0 L77,27.167 L38.5,54.333 L0,27.167 L38.5,0 z" stroke-width="1" stroke-dasharray="none"/></g><g width="38" height="26.666666666666664" transform="scale(1,1) translate(19.5,13.833)"><text width="38" height="16.66666603088379" transform="scale(1,1) translate(0,5.000000317891438)" xml:space="preserve"><tspan xml:space="preserve" text-rendering="optimizeSpeed" font-size="13.88888888888889" font-weight="normal" font-style="normal" fill="#000000" opacity="1" x="6.5" text-anchor="start" y="13.542" textLength="24.999998092651367" style="font-family: Verdana, Geneva, sans-serif;">Has</tspan></text></g></g><g width="125.312" height="49.744" transform="scale(1,1) translate(427.855,361.465)"><g transform="scale(1,1) translate(0,0)" fill="#717171" stroke="#717171" stroke-opacity="1"><path d="M0,0 L125.312,49.744" fill="none" stroke-width="1" stroke-dasharray="none"/><g><g stroke-dasharray="none"><path d="M-1,-1L1,-1L1,1L-1,1z" stroke-width="0" fill="none"/></g></g></g></g><g width="91.667" height="41.667" transform="scale(1,1) translate(192.15,310.585)"><g stroke="#000000" stroke-opacity="1" stroke-width="1" stroke-dasharray="none" width="91.667" height="41.667" transform="scale(1,1) translate(0,0)" fill="#FFFFFF" fill-opacity="1"><rect width="91.667" height="41.667"/></g><g width="86.66666666666666" height="36.666666666666664" transform="scale(1,1) translate(2.5,2.5)"><text width="86.66666666666666" height="16.66666603088379" transform="scale(1,1) translate(0,10.000000317891438)" xml:space="preserve"><tspan xml:space="preserve" text-rendering="optimizeSpeed" font-size="13.88888888888889" font-weight="normal" font-style="normal" fill="#000000" opacity="1" x="24.583" text-anchor="start" y="13.542" textLength="37.499996185302734" style="font-family: Verdana, Geneva, sans-serif;">Swap</tspan></text></g></g><g width="69.662" height="10.117" transform="scale(1,1) translate(283.817,331.418)"><g transform="scale(1,1) translate(0,0)" fill="#717171" stroke="#717171" stroke-opacity="1"><path d="M0,0 L69.662,10.117" fill="none" stroke-width="1" stroke-dasharray="none"/><g><g stroke-dasharray="none"><path d="M-1,-1L1,-1L1,1L-1,1z" stroke-width="0" fill="none"/></g></g></g></g><g width="83.667" height="34.667" transform="scale(1,1) translate(91.5,249.333)"><g width="83.667" height="34.667" transform="scale(1,1) translate(0,0)" stroke="#000000" stroke-width="1" stroke-dasharray="none" fill="#FFFFFF" fill-opacity="1" stroke-opacity="1"><ellipse rx="41.8335" ry="17.3335" cx="41.8335" cy="17.3335"/></g><g width="54.33333333333333" height="19.666666666666664" transform="scale(1,1) translate(14.667,7.5)"><text width="54.33333333333333" height="16.66666603088379" transform="scale(1,1) translate(0,1.5000003178914376)" xml:space="preserve"><tspan xml:space="preserve" text-rendering="optimizeSpeed" font-size="13.88888888888889" font-weight="normal" font-style="normal" fill="#000000" opacity="1" x="4.25" text-anchor="start" y="13.542" textLength="45.83333206176758" style="font-family: Verdana, Geneva, sans-serif;">reason</tspan></text></g></g><g width="83.333" height="34.667" transform="scale(1,1) translate(66.667,341)"><g width="83.333" height="34.667" transform="scale(1,1) translate(0,0)" stroke="#000000" stroke-width="1" stroke-dasharray="none" fill="#FFFFFF" fill-opacity="1" stroke-opacity="1"><ellipse rx="41.6665" ry="17.3335" cx="41.6665" cy="17.3335"/></g><g width="54.33333333333333" height="19.666666666666664" transform="scale(1,1) translate(14.5,7.5)"><text width="54.33333333333333" height="16.66666603088379" transform="scale(1,1) translate(0,1.5000003178914376)" xml:space="preserve"><tspan xml:space="preserve" text-rendering="optimizeSpeed" font-size="13.88888888888889" font-weight="normal" font-style="normal" fill="#000000" opacity="1" x="3.208" text-anchor="start" y="13.542" textLength="47.916664123535156" style="font-family: Verdana, Geneva, sans-serif;">accept</tspan></text></g></g><g width="58.817" height="37.002" transform="scale(1,1) translate(133.333,284)"><g transform="scale(1,1) translate(0,0)" fill="#717171" stroke="#717171" stroke-opacity="1"><path d="M0,0 L58.817,37.002" fill="none" stroke-width="1" stroke-dasharray="none"/><g><g stroke-dasharray="none"><path d="M-1,-1L1,-1L1,1L-1,1z" stroke-width="0" fill="none"/></g></g></g></g><g width="42.15" height="26.915" transform="scale(1,1) translate(150,331.418)"><g transform="scale(1,1) translate(0,0)" fill="#717171" stroke="#717171" stroke-opacity="1"><path d="M42.15,0 L0,26.915" fill="none" stroke-width="1" stroke-dasharray="none"/><g><g stroke-dasharray="none"><path d="M41.15,-1L43.15,-1L43.15,1L41.15,1z" stroke-width="0" fill="none"/></g></g></g></g><g width="11.333" height="18.833" transform="scale(1,1) translate(428.167,601)"><g stroke="#545454" stroke-opacity="1" stroke-width="0" stroke-dasharray="none" width="11.333" height="18.833" transform="scale(1,1) translate(0,0)" fill="none"><rect width="11.333" height="18.833"/></g><g width="11.458333015441895" height="18.833333333333332" transform="scale(1,1) translate(0,0)"><text width="11.458333015441895" height="18.75" transform="scale(1,1) translate(0,0.041666666666666075)" xml:space="preserve"><tspan xml:space="preserve" text-rendering="optimizeSpeed" font-size="16.666666666666668" font-weight="normal" font-style="normal" fill="#000000" opacity="1" x="0" text-anchor="start" y="15.625" textLength="11.458333015441895" style="font-family: Arial, Helvetica Neue, Helvetica, sans-serif;">N</tspan></text></g></g><g width="9.333" height="37.5" transform="scale(1,1) translate(516.667,470.833)"><g stroke="#545454" stroke-opacity="1" stroke-width="0" stroke-dasharray="none" width="9.333" height="37.5" transform="scale(1,1) translate(0,0)" fill="none"><rect width="9.333" height="37.5"/></g><g width="9.375" height="37.5" transform="scale(1,1) translate(0,0)"><text width="9.375" height="37.5" transform="scale(1,1) translate(0,0)" xml:space="preserve"><tspan xml:space="preserve" text-rendering="optimizeSpeed" font-size="16.666666666666668" font-weight="normal" font-style="normal" fill="#000000" opacity="1" x="0" text-anchor="start" y="34.375" textLength="9.375" style="font-family: Arial, Helvetica Neue, Helvetica, sans-serif;">1</tspan></text></g></g><g width="14" height="18.833" transform="scale(1,1) translate(709.667,407.333)"><g stroke="#545454" stroke-opacity="1" stroke-width="0" stroke-dasharray="none" width="14" height="18.833" transform="scale(1,1) translate(0,0)" fill="none"><rect width="14" height="18.833"/></g><g width="14" height="18.833333333333332" transform="scale(1,1) translate(0,0)"><text width="14" height="18.75" transform="scale(1,1) translate(0,0.041666666666666075)" xml:space="preserve"><tspan xml:space="preserve" text-rendering="optimizeSpeed" font-size="16.666666666666668" font-weight="normal" font-style="normal" fill="#000000" opacity="1" x="0" text-anchor="start" y="15.625" textLength="11.458333015441895" style="font-family: Arial, Helvetica Neue, Helvetica, sans-serif;">N</tspan></text></g></g><g width="9.333" height="37.5" transform="scale(1,1) translate(843.833,389.667)"><g stroke="#545454" stroke-opacity="1" stroke-width="0" stroke-dasharray="none" width="9.333" height="37.5" transform="scale(1,1) translate(0,0)" fill="none"><rect width="9.333" height="37.5"/></g><g width="9.375" height="37.5" transform="scale(1,1) translate(0,0)"><text width="9.375" height="37.5" transform="scale(1,1) translate(0,0)" xml:space="preserve"><tspan xml:space="preserve" text-rendering="optimizeSpeed" font-size="16.666666666666668" font-weight="normal" font-style="normal" fill="#000000" opacity="1" x="0" text-anchor="start" y="34.375" textLength="9.375" style="font-family: Arial, Helvetica Neue, Helvetica, sans-serif;">1</tspan></text></g></g><g width="14" height="18.833" transform="scale(1,1) translate(643,323.833)"><g stroke="#545454" stroke-opacity="1" stroke-width="0" stroke-dasharray="none" width="14" height="18.833" transform="scale(1,1) translate(0,0)" fill="none"><rect width="14" height="18.833"/></g><g width="14" height="18.833333333333332" transform="scale(1,1) translate(0,0)"><text width="14" height="18.75" transform="scale(1,1) translate(0,0.041666666666666075)" xml:space="preserve"><tspan xml:space="preserve" text-rendering="optimizeSpeed" font-size="16.666666666666668" font-weight="normal" font-style="normal" fill="#000000" opacity="1" x="0" text-anchor="start" y="15.625" textLength="11.458333015441895" style="font-family: Arial, Helvetica Neue, Helvetica, sans-serif;">N</tspan></text></g></g><g width="9.333" height="37.5" transform="scale(1,1) translate(662.5,180.167)"><g stroke="#545454" stroke-opacity="1" stroke-width="0" stroke-dasharray="none" width="9.333" height="37.5" transform="scale(1,1) translate(0,0)" fill="none"><rect width="9.333" height="37.5"/></g><g width="9.375" height="37.5" transform="scale(1,1) translate(0,0)"><text width="9.375" height="37.5" transform="scale(1,1) translate(0,0)" xml:space="preserve"><tspan xml:space="preserve" text-rendering="optimizeSpeed" font-size="16.666666666666668" font-weight="normal" font-style="normal" fill="#000000" opacity="1" x="0" text-anchor="start" y="34.375" textLength="9.375" style="font-family: Arial, Helvetica Neue, Helvetica, sans-serif;">1</tspan></text></g></g><g width="193.667" height="37.5" transform="scale(1,1) translate(777.167,116.667)"><g stroke="#545454" stroke-opacity="1" stroke-width="0" stroke-dasharray="none" width="193.667" height="37.5" transform="scale(1,1) translate(0,0)" fill="none"><rect width="193.667" height="37.5"/></g><g width="193.75003051757812" height="37.5" transform="scale(1,1) translate(0,0)"><text width="193.75003051757812" height="37.5" transform="scale(1,1) translate(0,0)" xml:space="preserve"><tspan xml:space="preserve" text-rendering="optimizeSpeed" font-size="16.666666666666668" font-weight="normal" font-style="normal" fill="#000000" opacity="1" x="0" text-anchor="start" y="34.375" textLength="193.75003051757812" style="font-family: Arial, Helvetica Neue, Helvetica, sans-serif;">1                                          1</tspan></text></g></g><g width="14" height="18.667" transform="scale(1,1) translate(318,315.667)"><g stroke="#545454" stroke-opacity="1" stroke-width="0" stroke-dasharray="none" width="14" height="18.667" transform="scale(1,1) translate(0,0)" fill="none"><rect width="14" height="18.667"/></g><g width="14" height="18.75" transform="scale(1,1) translate(0,0)"><text width="14" height="18.75" transform="scale(1,1) translate(0,0)" xml:space="preserve"><tspan xml:space="preserve" text-rendering="optimizeSpeed" font-size="16.666666666666668" font-weight="normal" font-style="normal" fill="#000000" opacity="1" x="0" text-anchor="start" y="15.625" textLength="11.458333015441895" style="font-family: Arial, Helvetica Neue, Helvetica, sans-serif;">N</tspan></text></g></g><g width="9.333" height="37.5" transform="scale(1,1) translate(462.5,330.167)"><g stroke="#545454" stroke-opacity="1" stroke-width="0" stroke-dasharray="none" width="9.333" height="37.5" transform="scale(1,1) translate(0,0)" fill="none"><rect width="9.333" height="37.5"/></g><g width="9.375" height="37.5" transform="scale(1,1) translate(0,0)"><text width="9.375" height="37.5" transform="scale(1,1) translate(0,0)" xml:space="preserve"><tspan xml:space="preserve" text-rendering="optimizeSpeed" font-size="16.666666666666668" font-weight="normal" font-style="normal" fill="#000000" opacity="1" x="0" text-anchor="start" y="34.375" textLength="9.375" style="font-family: Arial, Helvetica Neue, Helvetica, sans-serif;">1</tspan></text></g></g></g></svg>